<svg width="100" height="100" viewBox="0 0 100 100" fill="none" xmlns="http://www.w3.org/2000/svg">
<rect width="100" height="100" rx="13" fill="#2E2E2E"/>
<path d="M29.9404 74C37.1404 74 44.4124 67.304 44.8444 59.744V59.024C44.8444 48.368 30.2284 38.432 30.2284 32.24C30.2284 31.376 30.5884 30.584 31.2364 29.864C32.2444 28.712 33.6124 28.28 35.0524 28.28C39.8764 28.28 45.8524 33.464 45.8524 38.504L45.7084 39.8C45.7084 40.016 45.9244 40.232 46.1404 40.232L46.3564 40.16C50.6764 37.064 52.6204 33.824 52.6204 31.088C52.6204 26.48 47.5084 23.024 39.3724 23.024C33.9004 23.024 27.8524 23.744 24.4684 28.712C22.9564 30.944 22.3084 33.176 22.3084 35.264C22.3084 44.624 34.6924 52.616 35.2684 60.536V60.896C35.2684 63.992 32.6764 66.512 29.4364 66.728H28.7164C23.6764 66.728 21.5164 63.272 21.5164 58.304C21.5164 56 22.0204 53.408 22.8844 50.6V50.528C22.8844 50.24 22.7404 50.096 22.4524 50.096L22.2364 50.168C17.6284 52.976 14.3164 57.944 14.3164 63.272V64.064C14.8204 72.2 23.4604 74 29.9404 74ZM52.8201 74C54.1161 74 55.8441 73.928 55.8441 73.424L55.7001 73.136C55.1241 72.416 54.8361 71.192 54.8361 69.68C54.8361 59.816 65.6361 36.272 68.1561 31.088C70.3881 29.648 72.9081 28.64 74.9241 28.64C77.0121 28.64 78.4521 29.648 78.4521 32.24V32.6C78.1641 38.792 72.1161 42.608 67.0041 44.624C66.8601 44.624 66.7161 44.768 66.7161 44.912C66.7161 45.128 66.8601 45.272 67.0761 45.344C72.7641 48.008 75.5721 51.176 75.5721 56.288C75.5721 57.44 75.4281 58.736 75.1401 60.104C74.3481 64.064 70.9641 69.68 66.3561 69.68L65.4201 69.608C63.8361 69.32 63.2601 68.384 63.2601 67.304C63.2601 66.584 63.5481 65.72 63.9081 65C64.9161 62.984 67.0761 60.608 70.8201 57.944C70.9641 57.872 71.0361 57.728 71.0361 57.584C71.0361 57.44 70.8921 57.224 70.7481 57.152C69.0921 56.432 67.6521 56.144 66.2841 56.144C62.6121 56.144 60.0921 58.52 59.1561 61.544C59.0841 61.616 59.0841 61.76 59.0841 61.832C59.0121 62.192 58.9401 62.552 58.7961 62.84C58.7241 63.272 58.7241 63.776 58.7241 64.208C58.7241 68.528 61.8201 72.848 68.9481 73.064H69.3081C76.5801 73.064 81.6921 68.816 83.4201 62.048C83.7081 60.896 83.8521 59.816 83.8521 58.736C83.8521 52.4 79.3881 46.856 72.9081 45.128C78.6681 43.472 85.6521 39.44 85.6521 32.744L85.5801 31.592C85.0761 27.056 81.6921 25.472 77.8761 25.472C74.9961 25.472 71.9001 26.408 69.6681 27.632L71.0361 24.752V24.608C71.0361 23.888 68.3001 23.024 65.5641 23.024C63.5481 23.024 61.5321 23.528 60.8121 24.968C58.5081 29.216 47.9961 53.84 47.9961 66.512C47.9961 70.976 49.3641 74 52.8201 74Z" fill="white"/>
</svg>
