<svg width="26" height="40" viewBox="0 0 26 40" fill="none" xmlns="http://www.w3.org/2000/svg">
<path d="M12.6566 16.4988L0.282471 4.12454C0.355753 1.69358 3.22804 -0.000183107 3.22804 -0.000183107L17.3709 14.1416L12.6566 16.4988Z" fill="#F2F0F1"/>
<path d="M12.6566 16.4988L0.282471 4.12454C0.355753 1.69358 3.22804 -0.000183107 3.22804 -0.000183107L17.3709 14.1416L12.6566 16.4988Z" fill="black" fill-opacity="0.1"/>
<path d="M24.2946 23.4226L24.2934 23.4226L1.90479 1.03256C2.58838 0.377632 3.22808 -0.000183106 3.22808 -0.000183106L5.35817 2.12874L25.4727 22.2445C25.7986 22.5692 25.7986 23.0978 25.4727 23.4225C25.1467 23.7484 24.6193 23.7484 24.2946 23.4226Z" fill="#F2F0F1"/>
<path d="M24.2945 16.3517C22.992 15.0498 20.8814 15.0498 19.5801 16.3517L1.62258 34.3099C0.320144 35.6111 0.320144 37.7217 1.62258 39.023C2.92384 40.3255 5.0344 40.3255 6.33691 39.023L24.2945 21.0654C25.5957 19.7635 25.5957 17.6535 24.2945 16.3517Z" fill="#F2F0F1"/>
<path d="M21.9374 19.8867C21.6115 20.2127 21.0841 20.2127 20.7582 19.8867C20.4335 19.5614 20.4335 19.0341 20.7582 18.7087C21.0841 18.3828 21.6115 18.3828 21.9374 18.7087C22.2622 19.0341 22.2622 19.5614 21.9374 19.8867Z" fill="#2E2E2E"/>
</svg>
