<svg width="40" height="40" viewBox="0 0 40 40" fill="none" xmlns="http://www.w3.org/2000/svg">
<path d="M15.6184 23.0268L35.3816 22.8573C37.2466 20.8413 36.2731 17.2031 36.2731 17.2031L13.686 17.396L15.6184 23.0268Z" fill="#E6E9ED"/>
<path d="M1.50882 21.0958L1.50982 21.0968L37.2685 20.7889C37.2362 19.7202 37.0198 18.9095 37.0198 18.9095L33.6187 18.9377L1.49212 19.2143C0.972535 19.2178 0.554161 19.6435 0.559771 20.1631C0.564454 20.6837 0.989315 21.1012 1.50882 21.0958Z" fill="#F2F0F1"/>
<path d="M2.16537 20.0031C2.1658 17.9198 3.85418 16.2314 5.93653 16.2319L34.6668 16.2325C36.7496 16.2315 38.438 17.9198 38.437 20.0026C38.438 22.0855 36.7497 23.7738 34.6659 23.7738L5.93604 23.7738C3.85369 23.7733 2.16581 22.0854 2.16537 20.0031Z" fill="#F2F0F1"/>
<path d="M6.87888 20.9455C7.40034 20.9455 7.82219 20.5236 7.82219 20.0022C7.82169 19.4822 7.39986 19.0604 6.8799 19.0599C6.35844 19.0599 5.93659 19.4817 5.93659 20.0032C5.93702 20.5232 6.35886 20.9451 6.87888 20.9455Z" fill="#2E2E2E"/>
</svg>
